<svg width="80" height="80" viewBox="0 0 80 80" fill="none" xmlns="http://www.w3.org/2000/svg">
<rect width="80" height="80" rx="40" fill="#E4847A"/>
<path d="M40.2632 27.4338C30.1844 27.4579 20.5627 29.6227 15.6797 34.5058C13.4667 36.7187 12.3361 39.3888 12.4324 42.612C12.5045 44.4161 13.0097 46.2442 14.1643 47.3988C14.9581 48.2167 16.0886 48.6737 17.4838 48.4332L26.3598 46.9178C27.5384 46.7013 28.4285 46.3164 29.0539 45.715C29.8236 44.9934 30.1123 43.8388 30.1123 42.2753L30.1604 39.8458C30.1604 39.4609 30.3047 39.1723 30.5452 38.9317C30.7617 38.6671 31.0985 38.5469 31.3631 38.4747C32.9026 38.0658 36.198 37.6328 40.2632 37.6328C44.3283 37.6328 47.5997 37.9696 49.1632 38.4988C49.4278 38.5709 49.7165 38.7153 49.933 38.9317C50.1735 39.1482 50.2938 39.4128 50.2938 39.7736L50.366 42.2753C50.4141 43.8388 50.7268 44.9694 51.4725 45.715C52.0979 46.3405 52.9879 46.7013 54.1906 46.9178L62.802 48.3851C64.2693 48.6497 65.472 48.1445 66.3861 47.2545C67.4445 46.1721 68.0699 44.4883 68.094 42.5158C68.1421 39.2926 66.9153 36.6466 64.7504 34.5058C59.8674 29.6227 50.3419 27.4097 40.2632 27.4338Z" fill="white"/>
</svg>
